<?xml version="1.0" standalone="no"?>
<!DOCTYPE svg PUBLIC "-//W3C//DTD SVG 20010904//EN"
 "http://www.w3.org/TR/2001/REC-SVG-20010904/DTD/svg10.dtd">
<svg version="1.0" xmlns="http://www.w3.org/2000/svg"
 width="300.000000pt" height="550.000000pt" viewBox="0 0 300.000000 550.000000"
 preserveAspectRatio="xMidYMid meet">
<metadata>
Created by potrace 1.10, written by Peter Selinger 2001-2011
</metadata>
<g transform="translate(0.000000,550.000000) scale(0.100000,-0.100000)"
fill="#000000" stroke="none">
<path d="M1037 5344 c-4 -4 -30 -11 -58 -15 -79 -12 -186 -68 -256 -132 -46
-44 -72 -79 -107 -149 -58 -115 -76 -181 -76 -280 0 -97 31 -255 64 -330 52
-117 149 -233 262 -314 61 -44 270 -174 279 -174 2 0 34 -18 69 -40 36 -22 93
-53 126 -70 51 -26 60 -34 50 -46 -7 -7 -25 -14 -41 -14 -15 0 -31 -5 -34 -11
-4 -6 -13 -8 -20 -5 -7 2 -15 2 -18 0 -3 -3 -48 -20 -101 -39 -139 -47 -328
-165 -438 -271 -55 -53 -76 -107 -85 -215 -15 -194 76 -306 258 -317 92 -5
162 15 205 58 16 16 32 30 36 30 10 0 44 -119 58 -200 6 -36 10 -94 8 -129 -3
-55 -7 -67 -28 -82 -22 -16 -33 -17 -105 -8 -44 6 -84 15 -90 20 -11 11 -129
12 -139 2 -4 -5 -11 -8 -14 -9 -28 -3 -137 -58 -180 -91 -42 -31 -105 -117
-136 -185 -66 -141 -62 -235 13 -320 25 -29 30 -42 25 -63 -7 -27 12 -57 48
-76 23 -12 83 12 98 40 6 12 17 21 26 21 41 0 151 86 166 130 3 10 9 10 25 1
12 -6 28 -8 36 -5 11 4 18 -7 26 -46 27 -125 110 -221 225 -258 37 -12 83 -22
102 -22 41 0 41 17 5 -144 -30 -135 -38 -323 -17 -425 22 -109 50 -182 90
-234 66 -87 140 -110 190 -61 34 35 33 57 -6 141 -29 61 -32 77 -33 164 0 93
1 98 42 180 23 46 88 145 144 219 128 169 170 236 202 327 70 193 115 575 102
871 -7 150 -6 152 14 152 65 0 162 72 206 151 26 48 30 64 30 139 0 151 -45
227 -215 368 -122 100 -279 206 -362 244 -20 9 -63 34 -95 56 -32 21 -105 63
-163 92 -204 104 -465 291 -578 414 -128 141 -174 321 -121 479 56 171 201
327 302 327 63 0 136 -95 121 -157 -17 -74 -53 -89 -124 -53 -22 11 -51 20
-65 20 -32 0 -85 -50 -85 -80 0 -38 28 -88 59 -104 40 -21 159 -21 209 0 78
32 136 111 148 202 8 65 -23 173 -66 228 -36 46 -102 83 -147 84 -17 0 -35 5
-38 10 -7 11 -19 13 -28 4z m121 -51 c95 -44 155 -199 121 -314 -28 -92 -111
-150 -215 -151 -94 0 -146 42 -130 107 11 44 45 51 104 21 78 -39 118 -32 148
26 38 74 -5 192 -82 224 -46 19 -71 17 -131 -10 -61 -29 -120 -86 -172 -166
-145 -224 -132 -448 38 -649 100 -120 393 -333 601 -440 112 -58 200 -111 184
-111 -5 -1 -40 -5 -77 -9 -40 -6 -81 -5 -100 0 -63 18 -455 247 -577 337 -140
103 -236 241 -274 395 -52 205 -43 318 40 478 112 216 356 338 522 262z m533
-1510 c185 -57 285 -347 310 -898 20 -445 -28 -842 -128 -1053 -14 -30 -84
-132 -155 -226 -70 -94 -144 -202 -163 -241 -63 -130 -65 -247 -4 -367 35 -69
37 -103 8 -119 -80 -43 -184 78 -225 260 -28 127 -13 370 35 547 10 38 15 42
49 48 45 7 127 48 162 81 18 17 29 22 40 15 8 -5 34 -10 57 -10 34 0 50 7 79
32 69 60 91 145 54 205 -24 39 -52 55 -84 47 -22 -5 -25 -2 -31 33 -10 59 -32
113 -73 178 -31 49 -52 68 -107 100 -70 41 -137 98 -148 125 -5 12 -10 10 -27
-9 -12 -14 -24 -37 -27 -52 -4 -22 -12 -29 -42 -34 -45 -8 -144 -60 -182 -96
-28 -26 -30 -27 -60 -12 -28 14 -34 14 -64 0 -85 -41 -128 -178 -76 -241 15
-17 -59 -99 -112 -125 -52 -25 -87 -26 -130 -5 -40 20 -104 81 -123 116 -32
61 -9 174 57 283 54 90 111 143 197 182 76 35 76 35 172 28 52 -4 130 -8 172
-9 103 -1 121 14 126 112 7 118 -56 371 -108 435 -33 40 -31 14 3 -73 7 -16
-31 -47 -93 -76 -42 -20 -157 -22 -218 -5 -51 14 -101 62 -132 126 -20 41 -22
57 -18 143 8 150 26 183 162 284 170 127 279 180 488 238 180 50 276 59 359
33z m244 -132 c249 -189 307 -261 321 -398 15 -144 -61 -255 -197 -287 l-26
-6 -12 113 c-30 283 -84 471 -176 617 l-28 44 29 -19 c16 -10 56 -39 89 -64z
m-560 -1151 c4 -11 50 -49 104 -84 88 -57 101 -70 133 -127 48 -87 59 -127 59
-204 0 -49 -6 -79 -26 -122 -51 -113 -118 -171 -227 -199 -157 -41 -331 51
-388 204 -33 87 -31 182 4 259 47 102 145 178 247 190 46 5 49 7 49 35 0 55
32 89 45 48z m-348 -198 c9 -6 5 -21 -14 -60 -14 -29 -28 -75 -31 -102 -5 -59
-27 -67 -61 -24 -26 33 -27 74 -1 124 29 58 74 83 107 62z m757 -241 c44 -49
16 -152 -53 -198 -38 -26 -60 -29 -84 -10 -15 11 -14 17 13 70 16 33 32 81 36
108 6 47 8 49 39 49 18 0 39 -8 49 -19z m-1107 -131 c15 -1 15 -3 -6 -20 -13
-11 -29 -20 -37 -20 -21 0 -54 37 -54 60 l0 20 40 -20 c21 -11 47 -20 57 -20z"/>
<path d="M1441 1024 c-17 -14 -31 -30 -31 -36 0 -5 13 1 29 14 15 12 37 28 47
35 17 10 17 12 2 12 -9 1 -30 -11 -47 -25z"/>
<path d="M1150 2268 c-47 -20 -90 -54 -90 -72 0 -5 12 2 28 17 32 31 100 57
148 57 49 0 104 -58 104 -109 0 -22 10 -27 26 -12 5 6 41 23 79 40 43 19 61
30 47 31 -13 0 -45 -10 -73 -21 -40 -17 -52 -19 -64 -9 -8 7 -15 17 -15 22 0
17 -61 68 -83 69 -12 1 -31 3 -42 4 -11 1 -40 -7 -65 -17z"/>
<path d="M1550 2189 c46 -37 55 -46 67 -65 8 -13 12 -15 12 -5 1 17 -75 91
-92 91 -7 -1 -1 -10 13 -21z"/>
<path d="M1202 2161 c-19 -12 -11 -65 10 -69 9 -2 24 8 34 22 13 21 14 29 4
41 -14 17 -29 19 -48 6z"/>
<path d="M1466 2078 c-20 -29 -4 -63 23 -48 26 14 33 37 15 55 -20 19 -20 19
-38 -7z"/>
<path d="M1636 2055 c-4 -14 -2 -33 3 -43 8 -13 10 -8 11 26 0 48 -5 54 -14
17z"/>
<path d="M1100 2054 c-32 -37 39 -114 106 -114 18 0 44 5 58 12 23 10 28 8 48
-17 23 -30 74 -55 111 -55 27 0 57 28 57 53 0 24 -27 21 -33 -3 -3 -13 -14
-20 -29 -20 -29 0 -83 33 -97 59 -9 17 -8 22 10 32 25 13 16 24 -28 32 -25 5
-33 3 -33 -8 0 -7 5 -17 12 -21 19 -12 -22 -34 -64 -34 -50 0 -98 25 -98 50 0
10 5 22 10 25 6 3 10 10 10 16 0 15 -26 11 -40 -7z"/>
</g>
</svg>
